<?xml version="1.0" encoding="utf-8"?>
<!-- Generator: Adobe Illustrator 16.0.0, SVG Export Plug-In . SVG Version: 6.00 Build 0)  -->
<!DOCTYPE svg PUBLIC "-//W3C//DTD SVG 1.1//EN" "http://www.w3.org/Graphics/SVG/1.1/DTD/svg11.dtd">
<svg version="1.1" id="Layer_1" xmlns="http://www.w3.org/2000/svg" xmlns:xlink="http://www.w3.org/1999/xlink" x="0px" y="0px"
	 width="626.157px" height="140.169px" viewBox="125.309 161.114 626.157 140.169"
	 enable-background="new 125.309 161.114 626.157 140.169" xml:space="preserve">
<g>
	<g>
		<g>
			<path d="M192.812,293.747c-0.281,2.407-1.17,4.267-2.666,5.573c-1.495,1.31-3.483,1.962-5.964,1.962
				c-2.689,0-4.845-0.964-6.465-2.893c-1.621-1.929-2.432-4.509-2.432-7.738v-2.189c0-2.114,0.378-3.977,1.134-5.581
				s1.826-2.838,3.213-3.697c1.386-0.859,2.991-1.289,4.815-1.289c2.418,0,4.356,0.675,5.815,2.023
				c1.46,1.351,2.309,3.219,2.549,5.604h-3.018c-0.261-1.818-0.826-3.136-1.696-3.951c-0.87-0.815-2.087-1.224-3.65-1.224
				c-1.918,0-3.422,0.71-4.511,2.128c-1.089,1.419-1.634,3.438-1.634,6.056v2.207c0,2.472,0.516,4.438,1.548,5.899
				c1.032,1.46,2.476,2.189,4.331,2.189c1.667,0,2.947-0.378,3.838-1.134c0.892-0.756,1.482-2.071,1.774-3.947L192.812,293.747
				L192.812,293.747z"/>
			<path d="M238.136,290.322c0,2.231-0.376,4.178-1.126,5.84c-0.751,1.663-1.813,2.933-3.189,3.808
				c-1.376,0.876-2.981,1.313-4.815,1.313c-1.793,0-3.383-0.439-4.769-1.32c-1.387-0.881-2.463-2.137-3.229-3.769
				c-0.767-1.631-1.16-3.521-1.181-5.667v-1.644c0-2.188,0.381-4.122,1.142-5.8c0.761-1.678,1.837-2.963,3.229-3.854
				c1.392-0.892,2.983-1.336,4.776-1.336c1.823,0,3.432,0.439,4.823,1.319c1.392,0.883,2.462,2.158,3.213,3.831
				c0.75,1.673,1.126,3.619,1.126,5.839V290.322z M235.149,288.853c0-2.699-0.542-4.771-1.626-6.214
				c-1.085-1.444-2.601-2.166-4.55-2.166c-1.897,0-3.391,0.722-4.479,2.166c-1.089,1.442-1.649,3.446-1.681,6.011v1.673
				c0,2.617,0.55,4.673,1.649,6.168c1.1,1.496,2.613,2.244,4.542,2.244c1.938,0,3.439-0.706,4.503-2.119
				c1.063-1.412,1.61-3.437,1.642-6.073V288.853z"/>
			<path d="M283.851,300.97h-3.018l-11.46-17.542v17.542h-3.018v-22.765h3.018l11.491,17.62v-17.62h2.986L283.851,300.97
				L283.851,300.97z"/>
			<path d="M329.644,293.747c-0.281,2.407-1.17,4.267-2.666,5.573c-1.495,1.31-3.483,1.962-5.964,1.962
				c-2.689,0-4.845-0.964-6.465-2.893c-1.621-1.929-2.432-4.509-2.432-7.738v-2.189c0-2.114,0.378-3.977,1.134-5.581
				s1.826-2.838,3.213-3.697c1.386-0.859,2.991-1.289,4.815-1.289c2.418,0,4.356,0.675,5.815,2.023
				c1.46,1.351,2.309,3.219,2.549,5.604h-3.018c-0.261-1.818-0.826-3.136-1.696-3.951c-0.87-0.815-2.087-1.224-3.65-1.224
				c-1.918,0-3.422,0.71-4.511,2.128c-1.089,1.419-1.634,3.438-1.634,6.056v2.207c0,2.472,0.516,4.438,1.548,5.899
				c1.032,1.46,2.476,2.189,4.331,2.189c1.667,0,2.947-0.378,3.838-1.134c0.892-0.756,1.482-2.071,1.774-3.947L329.644,293.747
				L329.644,293.747z"/>
			<path d="M370.324,290.447h-9.865v8.067h11.46v2.455h-14.462v-22.765h14.306v2.454h-11.304v7.333h9.865V290.447z"/>
			<path d="M402.374,292.058v8.912h-3.002v-22.765h8.396c2.491,0,4.442,0.636,5.855,1.907c1.412,1.271,2.118,2.955,2.118,5.05
				c0,2.21-0.69,3.911-2.071,5.104c-1.382,1.193-3.359,1.79-5.934,1.79L402.374,292.058L402.374,292.058z M402.374,289.604h5.394
				c1.604,0,2.835-0.379,3.689-1.136c0.854-0.758,1.282-1.852,1.282-3.281c0-1.357-0.428-2.443-1.282-3.258
				c-0.854-0.815-2.027-1.237-3.518-1.27h-5.565V289.604z"/>
			<path d="M458.082,280.66h-7.316v20.311h-2.985V280.66h-7.303v-2.454h17.604V280.66z"/>
			<path d="M537.621,300.97h-3.019v-10.522h-11.476v10.522h-3.002v-22.765h3.002v9.787h11.476v-9.787h3.019V300.97z"/>
			<path d="M584.181,290.322c0,2.231-0.376,4.178-1.126,5.84c-0.751,1.663-1.813,2.933-3.188,3.808
				c-1.376,0.876-2.981,1.313-4.815,1.313c-1.793,0-3.383-0.439-4.769-1.32c-1.387-0.881-2.463-2.137-3.229-3.769
				c-0.767-1.631-1.159-3.521-1.181-5.667v-1.644c0-2.188,0.381-4.122,1.142-5.8c0.762-1.678,1.837-2.963,3.229-3.854
				c1.392-0.892,2.982-1.336,4.775-1.336c1.823,0,3.433,0.439,4.823,1.319c1.393,0.883,2.462,2.158,3.213,3.831
				c0.75,1.673,1.126,3.619,1.126,5.839V290.322z M581.194,288.853c0-2.699-0.542-4.771-1.626-6.214
				c-1.085-1.444-2.602-2.166-4.551-2.166c-1.896,0-3.391,0.722-4.479,2.166c-1.089,1.442-1.649,3.446-1.681,6.011v1.673
				c0,2.617,0.55,4.673,1.648,6.168c1.1,1.496,2.613,2.244,4.542,2.244c1.938,0,3.439-0.706,4.503-2.119
				c1.063-1.412,1.61-3.437,1.643-6.073V288.853z"/>
			<path d="M628.426,278.206v15.479c-0.011,2.146-0.686,3.903-2.024,5.27c-1.34,1.365-3.155,2.132-5.448,2.299l-0.798,0.03
				c-2.491,0-4.478-0.672-5.956-2.017c-1.48-1.346-2.23-3.194-2.252-5.552v-15.509h2.971v15.415c0,1.647,0.453,2.927,1.36,3.839
				c0.906,0.912,2.198,1.368,3.877,1.368c1.699,0,3-0.454,3.9-1.359c0.901-0.907,1.354-2.185,1.354-3.831v-15.432H628.426
				L628.426,278.206z"/>
			<path d="M663.587,290.823c-2.575-0.74-4.448-1.649-5.621-2.729c-1.172-1.079-1.759-2.41-1.759-3.994
				c0-1.793,0.717-3.276,2.15-4.448c1.433-1.173,3.296-1.759,5.589-1.759c1.563,0,2.957,0.302,4.183,0.905
				c1.226,0.604,2.173,1.438,2.845,2.503c0.674,1.063,1.01,2.226,1.01,3.485h-3.019c0-1.381-0.438-2.466-1.313-3.256
				c-0.875-0.789-2.11-1.185-3.705-1.185c-1.48,0-2.636,0.325-3.463,0.979c-0.829,0.652-1.243,1.558-1.243,2.717
				c0,0.931,0.394,1.716,1.181,2.357c0.787,0.643,2.126,1.229,4.019,1.763c1.893,0.532,3.371,1.119,4.439,1.76
				c1.068,0.643,1.86,1.39,2.377,2.244s0.773,1.86,0.773,3.018c0,1.846-0.719,3.321-2.157,4.433s-3.361,1.665-5.771,1.665
				c-1.563,0-3.021-0.3-4.378-0.897c-1.354-0.601-2.398-1.42-3.135-2.464c-0.733-1.042-1.102-2.226-1.102-3.549h3.018
				c0,1.376,0.508,2.462,1.524,3.26c1.016,0.798,2.373,1.196,4.072,1.196c1.584,0,2.799-0.323,3.643-0.97
				c0.845-0.646,1.267-1.526,1.267-2.644c0-1.114-0.391-1.978-1.173-2.587C667.058,292.019,665.64,291.417,663.587,290.823z"/>
			<path d="M712.46,290.447h-9.865v8.067h11.46v2.455h-14.462v-22.765h14.307v2.454h-11.305v7.333h9.865V290.447z"/>
		</g>
	</g>
	<g>
		<polygon points="171.814,254.54 171.814,161.854 184.547,161.854 200.797,183.295 200.797,161.854 213.531,161.854 
			213.531,254.54 200.797,254.54 200.797,202.724 184.547,180.973 184.547,254.54 		"/>
		<polygon points="244.217,161.854 273.188,161.854 273.188,173.644 256.949,173.644 256.949,184.531 279.673,184.531 
			279.673,197.213 256.949,197.213 256.949,241.807 272.879,241.807 272.879,254.54 244.217,254.54 244.217,197.537 
			236.888,197.537 236.888,184.531 244.217,184.531 		"/>
		<polygon points="335.684,161.854 342.111,161.854 350.432,215.684 358.936,161.863 372.049,161.854 357.191,254.54 
			342.852,254.54 335.68,204.75 328.51,254.54 314.175,254.54 299.313,161.854 312.43,161.863 320.921,215.684 329.254,161.854 
			335.671,161.854 		"/>
		<polygon points="434.742,161.854 447.334,161.854 458.553,184.471 469.629,161.854 482.373,161.854 464.91,195.723 464.91,254.54 
			452.15,254.54 452.15,195.51 		"/>
		<g id="XMLID_23_">
			<g>
				<path d="M623.133,227.366l21.441,27.188h-15.021l-16.777-22.512v22.512h-12.308V161.87c0,0,9.415-0.331,12.739,0.077
					c9.695,1.185,28.168,10.472,29.544,32.385C644.229,217.862,623.133,227.366,623.133,227.366z M613.208,217.824
					c0,0,18.677-3.847,17.62-23.11c-0.918-16.715-17.62-20.002-17.62-20.002V217.824z"/>
			</g>
		</g>
		<polygon points="670.359,161.863 670.359,254.54 683.046,254.54 683.046,195.186 686.441,191.411 699.846,254.54 713.736,254.54 
			696.291,180.445 712.984,161.863 697.115,161.863 683.046,177.54 683.046,161.863 		"/>
		<path d="M533.934,161.114c-22.522,0-40.771,21.104-40.771,47.148c0,26.021,18.248,47.129,40.771,47.129
			c22.515,0,40.773-21.108,40.773-47.129C574.707,182.218,556.447,161.114,533.934,161.114z M533.934,244.056
			c-15.878,0-28.76-17.436-28.76-35.793c0-18.369,12.882-35.813,28.76-35.813c15.885,0,28.762,17.444,28.762,35.813
			C562.694,226.621,549.817,244.056,533.934,244.056z"/>
		<rect x="125.309" y="213.833" width="20.068" height="12.733"/>
		<rect x="731.4" y="213.833" width="20.065" height="12.733"/>
	</g>
</g>
</svg>
